<?xml version="1.0" encoding="UTF-8"?><svg id="Layer_1" xmlns="http://www.w3.org/2000/svg" viewBox="0 0 1707.89 229.16"><defs><style>.cls-1{fill:#fff;}</style></defs><path class="cls-1" d="M885.08,225.01c2.32-10.86,4.61-21.19,6.73-31.54,4.73-23.09,9.46-46.18,13.94-69.33.71-3.67.72-7.72,0-11.39-2.4-12.23-14.71-17.87-28.44-13.41-7.85,2.55-13.37,7.97-17.56,14.8-7.33,11.96-10.38,25.47-13.37,38.92-5.29,23.8-10.35,47.65-15.55,71.69h-39.54c2.57-11.97,5.18-23.72,7.61-35.52,4.38-21.3,8.77-42.6,12.85-63.96.8-4.17.9-8.74.1-12.88-2.07-10.68-12.64-16.43-24.35-14.04-11.25,2.31-19.14,9.31-23.12,19.39-5.21,13.21-9.46,26.91-12.86,40.71-5.39,21.9-9.72,44.05-14.55,66.3h-39.53c10.5-51.28,20.94-102.27,31.44-153.53h36.64c-1.09,6.6-2.13,12.94-3.18,19.27.67.59,1.35,1.18,2.02,1.77.39-1.24.43-2.76,1.21-3.67,14.88-17.41,33.64-24.55,56.11-19.75,14.52,3.1,24.78,11.63,28.31,27.96,1.28-1.64,2.18-2.64,2.9-3.75,10.12-15.48,25.13-22.56,42.84-25.16,13.5-1.98,25.79.51,36.45,9.37,10.35,8.6,16.44,19.68,15.1,33.14-1.47,14.64-4.24,29.2-7.18,43.64-4.61,22.61-9.8,45.1-14.91,67.6-.29,1.29-2.04,3.19-3.13,3.21-12.13.23-24.26.14-36.97.14v.02Z"/><path class="cls-1" d="M325.55,224.81h-38.58c3.38-16.16,6.67-32.05,10.04-47.94,12.16-57.32,24.38-114.62,36.44-171.96C334.19,1.37,335.24-.1,339.14,0c11.3.29,22.62.1,34.93.1-8.91,42.34-17.73,84.26-26.55,126.17.27.23.53.47.8.7,1.24-1.08,2.55-2.09,3.71-3.25,16.38-16.36,32.79-32.69,49.06-49.16,2.52-2.55,5-3.79,8.69-3.73,13.48.22,26.97.09,40.46.09h5.48c-3.14,3.13-5.4,5.46-7.75,7.7-20.73,19.76-41.42,39.58-62.3,59.18-2.92,2.74-2.99,4.62-1.13,7.92,13.81,24.63,27.43,49.37,41.1,74.08.79,1.43,1.51,2.9,2.71,5.2h-16.75c-7.83,0-15.66-.15-23.48.07-3.13.09-4.65-.99-6-3.8-11.73-24.4-23.63-48.71-35.5-73.04-.76-1.55-1.65-3.04-2.48-4.55-.44.05-.89.11-1.33.16-5.75,26.96-11.51,53.92-17.28,80.96h.02Z"/><path class="cls-1" d="M1062.31,130.11c.29-5.11.95-9.72.73-14.3-.37-7.94-4.86-13.12-12.1-16.12-11.37-4.7-23.21-4.44-34.83-2.18-11.63,2.27-22.99,5.95-34.41,9,1.47-8.59,3.02-18.05,4.8-27.46.22-1.15,1.56-2.61,2.7-2.99,23.85-7.96,48.17-11.53,73.07-6,26.63,5.91,40.41,25.7,36.04,52.58-4.71,28.99-10.37,57.82-15.6,86.72-.92,5.06-1.74,10.14-2.66,15.5h-32.98c1.28-7.6,2.52-15.01,3.77-22.42-.28-.22-.56-.43-.84-.65-1.1,1.21-2.27,2.37-3.3,3.64-17.06,21.1-41.36,28.65-65.9,20.45-18.59-6.21-29.21-23.19-28.17-42.83,1.5-28.41,19.63-41.78,45.18-48.09,17.25-4.26,34.89-4.55,52.51-4.84,3.79-.06,7.58,0,11.98,0h.01ZM1057.16,154.01c-15.82-.25-31.28-.95-46.2,4.2-7.05,2.43-13.54,5.99-17.17,12.86-6.09,11.52-4.7,25.68,12.9,28.43,12.65,1.98,24.57-.97,34-10.43,9.55-9.57,13.1-22.03,16.47-35.07h0Z"/><path class="cls-1" d="M1391.08,159.19c1.36-7.86,2.53-15.7,4.26-23.41.27-1.19,3.12-2.54,4.8-2.56,14.98-.2,29.97-.12,44.96-.12h5.64c2.06-8.07,1.92-15.78-.88-23.24-3.84-10.22-15.42-15.28-28.78-13.73-15.2,1.76-25.94,9.58-32.87,22.88-8.62,16.56-13.78,33.94-10.33,52.81,2.97,16.28,12.73,24.93,29.36,27.25,19.68,2.74,38.33-1.01,56.46-8.46.91-.38,1.85-.71,3.37-1.29-1.56,9.85-2.98,19.3-4.63,28.71-.18,1.02-1.45,2.35-2.48,2.66-25.48,7.68-51.23,11.89-77.42,3.86-26.48-8.12-40.32-26.77-43.28-53.9-4.38-40.1,19.45-81.52,56.2-96.96,21.52-9.04,43.46-9.14,64.86.45,17.03,7.63,25.77,21.77,28.64,39.9,2.27,14.38.02,28.5-2.24,42.63-.34,2.12-1.07,3.42-3.82,3.41-29.8-.14-59.61-.12-89.41-.15-.31,0-.61-.18-2.4-.75h0Z"/><path class="cls-1" d="M584.63,159.78h-95.12c1.52-8.53,2.83-16.62,4.57-24.62.21-.95,2.79-1.96,4.28-1.97,14.99-.15,29.98-.09,44.97-.09h6.07c1.95-10.15,2.52-20.08-4.05-28.58-6.5-8.42-16.15-9.11-25.9-8.25-15.71,1.4-26.3,10.1-33.22,23.82-8.1,16.04-12.93,32.79-9.93,50.95,2.71,16.41,12.72,25.57,29.27,27.95,18.99,2.73,37.03-.65,54.64-7.54,1.54-.6,3.07-1.22,5.43-2.16-1.28,8.19-3.09,15.75-3.48,23.39-.34,6.59-3.89,8.39-9.32,9.8-20.45,5.33-40.92,8.18-62.09,4.52-32.13-5.55-52.85-29.29-53.21-61.87-.46-40.9,21.52-76.71,56.59-91.5,19.64-8.28,39.77-8.69,59.85-1.56,17.69,6.28,28.44,18.91,32.61,37.22,3.87,17.01,1.09,33.67-1.95,50.49h-.01Z"/><path class="cls-1" d="M625.44,99.89h-29.09c2.13-9.96,4.14-19.37,6.19-28.96,8.78,0,17.09-.1,25.41.06,2.87.06,4.05-.85,4.6-3.76,1.48-8,3.4-15.91,5.02-23.89.61-3.01,1.86-4.81,5.12-5.81,12.64-3.86,25.17-8.12,38.4-12.44-3.3,15.47-6.47,30.33-9.77,45.81h36.05c-2.16,9.96-4.18,19.31-6.25,28.9-10.82,0-21.3.1-31.77-.06-3.22-.05-4.52.8-5.21,4.22-4.92,24.07-10.24,48.06-15.16,72.13-.71,3.48-.52,7.35.18,10.85,1.39,6.93,6.47,11.08,13.48,10.91,6.58-.16,13.14-1.11,20.21-1.76-1.53,7.14-3.53,14.89-4.76,22.76-.8,5.09-3.23,7.03-8.16,8.01-10.26,2.05-20.34,2.46-30.63.34-22.46-4.63-32.25-20.29-30.01-41.37,2.17-20.4,6.94-40.53,10.74-60.75,1.56-8.29,3.54-16.5,5.43-25.21l-.02.02Z"/><path class="cls-1" d="M35.3,70.93c2.21-10,4.22-19.41,6.42-28.77.33-1.4,1.33-3.35,2.46-3.73,13.27-4.52,26.62-8.78,40.56-13.31-3.3,15.54-6.46,30.4-9.74,45.81h35.95c-1.94,9.26-3.65,18.02-5.77,26.68-.25,1.01-2.73,2.07-4.19,2.09-10.48.18-20.96.1-32.12.1-1.64,7.21-3.32,14.4-4.89,21.61-3.64,16.7-7.39,33.38-10.71,50.15-.92,4.65-1.04,9.62-.59,14.35.69,7.26,6.2,11.86,13.55,12.01,3.31.07,6.67,0,9.95-.42,3.27-.42,6.46-1.36,10.43-2.24-.79,4.01-1.54,7.79-2.3,11.57-.16.81-.42,1.61-.58,2.42-3.69,17.74-3.67,17.94-22,19.46-9.52.79-18.97-.53-27.85-4.21-14.02-5.8-20.18-17.08-21.13-31.68-.95-14.63,2.41-28.75,5.44-42.88,3.3-15.42,6.75-30.8,10.11-46.2.24-1.1.26-2.24.43-3.76H0c2.11-9.91,4.13-19.33,6.2-29.04h29.11-.01Z"/><path class="cls-1" d="M1323.73,25.09c-3.31,15.5-6.48,30.37-9.78,45.85h36.04c-2.11,9.83-4.1,19.06-6.2,28.86-10.29,0-20.57.22-30.83-.11-4.18-.13-5.59,1.16-6.42,5.26-4.77,23.59-10.01,47.09-14.81,70.67-.74,3.64-.62,7.68.09,11.34,1.35,6.93,6.48,11.08,13.48,10.89,6.58-.17,13.14-1.12,20.25-1.78-1.94,8.79-3.97,18.22-6.18,27.61-.2.84-1.51,1.78-2.47,2.04-12.88,3.49-25.82,4.33-38.84.58-19.68-5.67-28.29-20.5-26.14-40.45,2.19-20.4,6.94-40.53,10.74-60.75,1.56-8.29,3.56-16.5,5.46-25.2h-29.1c2.12-9.96,4.13-19.37,6.18-28.96,8.78,0,17.1-.11,25.41.06,2.88.06,4.06-.86,4.6-3.76,1.49-7.99,3.41-15.91,5.01-23.88.61-3.04,1.89-4.81,5.13-5.8,12.63-3.87,25.15-8.12,38.4-12.45l-.02-.02Z"/><path class="cls-1" d="M1109.07,189.64c10.36,3.31,20.22,7.47,30.5,9.38,7.08,1.31,15.02.6,22.09-1.16,15.59-3.9,19.05-18.45,7.26-29.56-4.91-4.62-11.03-7.94-16.41-12.09-6.95-5.35-14.82-10.02-20.37-16.61-15.6-18.53-10.11-46.6,11.07-60.2,16.04-10.3,34.04-12.88,52.57-11.91,10.37.54,20.67,2.4,31.77,3.76-3.07,10.72-5.82,20.34-8.6,30.04-12.14-4.26-24.08-6.83-36.53-4.28-3.53.72-7.16,1.72-10.32,3.41-8.2,4.38-9.95,13.95-3.39,20.53,4.64,4.66,10.3,8.32,15.58,12.33,6.08,4.62,12.42,8.91,18.33,13.73,24.37,19.89,16.19,58.69-9.27,71.98-12.39,6.47-25.67,9.02-39.33,9.71-16.39.83-32.48-1.15-48.02-6.88-3.71-1.37-5.29-2.78-3.86-7.17,2.77-8.5,4.82-17.25,6.92-25.01h.01Z"/><path class="cls-1" d="M276.96,190.79c-1.53,10.4-2.9,20.06-4.46,29.69-.14.85-1.4,1.88-2.36,2.2-25.77,8.67-51.29,10.23-75.15-5.25-16.79-10.9-24.56-27.77-26.04-47.22-1.95-25.7,3.7-49.66,19.93-70.26,15.31-19.44,35.79-29.54,60.26-32.09,15.43-1.61,30.49.35,45.42,4.02,1.59.39,3.14.92,4.9,1.45-3.18,10.61-6.27,20.92-9.29,30.97-6.69-1.88-13.05-4.31-19.62-5.42-24.37-4.12-43.98,6.44-54.16,29.14-7.33,16.36-8.94,33.3-2.99,50.47,4.19,12.07,14.61,19.01,27.42,19.52,12.34.49,24.01-2.17,36.14-7.22h0Z"/><path class="cls-1" d="M1607.99,106.31c-7.4-.35-13.89-1.42-20.24-.82-15.55,1.47-25.96,10.73-33.45,23.87-7.22,12.67-9.51,26.81-12.43,40.77-3.8,18.16-7.55,36.32-11.36,54.65h-39.49c10.5-51.3,20.95-102.39,31.44-153.67h37.21c-1.65,9.12-3.25,18-4.86,26.88,14.7-21.56,32.96-35.04,61.2-29.26-2.78,12.98-5.46,25.54-8.04,37.59h.02Z"/><path class="cls-1" d="M128.25,71.16h39.51c-2.46,11.75-4.81,23.25-7.28,34.74-8.21,38.29-16.51,76.55-24.57,114.87-.7,3.32-1.78,4.36-5.08,4.31-11.62-.18-23.24-.07-35.43-.07,10.99-51.48,21.86-102.39,32.84-153.85h0Z"/><path class="cls-1" d="M174.38,41.81h-39.54c2.75-12.63,5.44-24.99,8.18-37.58h39.52c-2.72,12.53-5.41,24.89-8.16,37.58h0Z"/><path class="cls-1" d="M1673.96,61.84c19.17.12,34.11,15.55,33.92,35.04-.17,18.32-16,33.91-34.42,33.91s-34.79-16.25-34.56-34.88c.24-19.09,15.78-34.19,35.06-34.07ZM1701.85,96.08c0-16.75-12.51-29.93-28.32-29.87-15.88.06-28.46,13.18-28.54,29.78-.08,16.92,12.44,29.99,28.71,29.96,16.03-.03,28.16-12.9,28.15-29.86h0Z"/><path class="cls-1" d="M1660.79,75.93c5.64,0,10.78-.08,15.91.02,7.93.15,11.94,3.24,12.86,9.72.88,6.16-2.38,10.54-10.21,13.13,3.47,5.53,6.88,10.95,10.42,16.6-3.81,1.63-6.27.87-8.18-2.71-2.03-3.8-4.71-7.25-6.79-11.03-1.71-3.09-3.94-4.31-7.9-3.07v17.28h-6.11v-39.95h0ZM1667.06,93.2c3.66,0,6.95.07,10.23-.02,4.07-.11,6.06-2.34,5.93-6.36-.12-3.89-2.61-5.62-6.12-5.86-3.26-.23-6.54-.05-10.03-.05v12.29h-.01Z"/></svg>